<?xml version="1.0" encoding="UTF-8"?>
<svg width="64px" height="37px" viewBox="0 0 64 37" version="1.1" xmlns="http://www.w3.org/2000/svg" xmlns:xlink="http://www.w3.org/1999/xlink">
    <!-- Generator: Sketch 44.1 (41455) - http://www.bohemiancoding.com/sketch -->
    <title>Group 7</title>
    <desc>Created with Sketch.</desc>
    <defs></defs>
    <g id="Public-facing-mobile" stroke="none" stroke-width="1" fill="none" fill-rule="evenodd">
        <g id="Artboard-Copy-30" transform="translate(-16.000000, -11.000000)">
            <g id="Group-7" transform="translate(16.000000, 11.000000)">
                <path d="M58.4264423,3.20726236 C58.4264423,1.69643692 59.630559,0.460983607 61.1319885,0.460983607 C62.6408508,0.460983607 63.8598332,1.69643692 63.8598332,3.20726236 C63.8598332,4.7180878 62.6408508,5.96098361 61.1319885,5.96098361 C59.630559,5.96098361 58.4264423,4.7180878 58.4264423,3.20726236 Z M59.0062022,3.20726236 C59.0062022,4.45760066 59.9427374,5.41768185 61.1319885,5.41768185 C62.3212396,5.41768185 63.2577748,4.45760066 63.2577748,3.20726236 C63.2577748,1.95692407 62.3212396,1.00428537 61.1319885,1.00428537 C59.9427374,1.00428537 59.0062022,1.95692407 59.0062022,3.20726236 Z M60.7900788,3.07329754 L61.1765854,3.07329754 C61.5110623,3.07329754 61.6968828,2.90956277 61.6968828,2.63419064 C61.6968828,2.34393354 61.5110623,2.18019876 61.1765854,2.18019876 L60.7900788,2.18019876 L60.7900788,3.07329754 Z M60.7900788,3.56450187 L60.7900788,4.68087535 L60.2251846,4.68087535 L60.2251846,1.68899443 L61.2583464,1.68899443 C61.8381063,1.68899443 62.2692099,2.09833137 62.2692099,2.62674815 C62.2692099,3.04352758 62.0016284,3.38588212 61.6151218,3.51240445 L62.2840755,4.68087535 L61.6374202,4.68087535 L61.0130634,3.56450187 L60.7900788,3.56450187 Z" id="®-copy-12" fill="#1A222C"></path>
                <path d="M3.46029307,33.5461017 C3.88549525,33.6694411 4.3350268,33.7355546 4.8,33.7355546 L52.1423077,33.7355546 C54.7932745,33.7355546 56.9423077,31.5865214 56.9423077,28.9355546 L56.9423077,4.8 C56.9423077,2.1490332 54.7932745,3.33390988e-15 52.1423077,-8.8817842e-16 L52.1423077,0 L4.8,0 L4.8,-1.77635684e-15 C2.1490332,-1.28938214e-15 -1.21282822e-15,2.1490332 -8.8817842e-16,4.8 L0,4.8 L7.61302519e-16,25.4878011 L8.44602707e-16,37 L3.46029307,33.5461017 Z" id="Combined-Shape" fill="#1A222C"></path>
                <path d="M11.0201538,7.44367213 C10.8747692,7.4 10.6566923,7.37088525 10.4386154,7.37088525 C9.85707692,7.37088525 8.94115385,7.60380328 8.56315385,8.41901639 L8.56315385,7.44367213 L6.426,7.44367213 L6.426,14.6786885 L8.63584615,14.6786885 L8.63584615,11.5197377 C8.63584615,10.0785574 9.43546154,9.5544918 10.3223077,9.5544918 C10.5403846,9.5544918 10.773,9.56904918 11.0201538,9.62727869 L11.0201538,7.44367213 Z M11.51325,12.6843279 C11.51325,11.4032787 12.45825,10.6754098 13.6504039,10.5007213 L15.3514039,10.2386885 C15.7439423,10.180459 15.8747885,9.99121311 15.8747885,9.7437377 C15.8747885,9.32157377 15.5113269,8.95763934 14.8134808,8.95763934 C14.0429423,8.95763934 13.6213269,9.48170492 13.5777116,10.0203279 L11.6586346,9.62727869 C11.7458654,8.59370492 12.7054039,7.22531148 14.8280192,7.22531148 C17.1687116,7.22531148 18.0264808,8.53547541 18.0264808,10.0203279 L18.0264808,13.5577705 C18.0264808,14.1255082 18.0991731,14.6059016 18.1137116,14.6786885 L16.1219423,14.6786885 C16.1074039,14.620459 16.04925,14.3584262 16.04925,13.8634754 C15.67125,14.4748852 14.9734039,14.8824918 14.0138654,14.8824918 C12.4291731,14.8824918 11.51325,13.8343607 11.51325,12.6843279 Z M14.5517885,13.2811803 C15.2060192,13.2811803 15.8747885,12.960918 15.8747885,11.84 L15.8747885,11.5197377 L14.5081731,11.7380984 C14.0429423,11.8108852 13.6940192,12.0292459 13.6940192,12.5387541 C13.6940192,12.9172459 13.9411731,13.2811803 14.5517885,13.2811803 Z M21.9942693,5.33285246 L20.0170385,5.33285246 L20.0170385,6.26452459 C20.0170385,6.93416393 19.6535769,7.44367213 18.8975769,7.44367213 L18.5341154,7.44367213 L18.5341154,9.37980328 L19.8135,9.37980328 L19.8135,12.4805246 C19.8135,13.9217049 20.7294231,14.8097049 22.2268846,14.8097049 C22.9247308,14.8097049 23.2881923,14.6495738 23.3754231,14.6059016 L23.3754231,12.7716721 C23.2445769,12.8007869 23.0265,12.844459 22.7938846,12.844459 C22.3141154,12.844459 21.9942693,12.6843279 21.9942693,12.0874754 L21.9942693,9.37980328 L23.4045,9.37980328 L23.4045,7.44367213 L21.9942693,7.44367213 L21.9942693,5.33285246 Z M26.0929039,10.1950164 L28.9860577,10.1950164 C28.9569808,9.64183607 28.5789808,8.97219672 27.5322116,8.97219672 C26.60175,8.97219672 26.1365193,9.65639344 26.0929039,10.1950164 Z M29.1459808,12.072918 L30.9923654,12.5969836 C30.6434423,13.848918 29.4949039,14.8970492 27.6630577,14.8970492 C25.6712885,14.8970492 23.8975962,13.4704262 23.8975962,11.0393443 C23.8975962,8.71016393 25.6276731,7.22531148 27.5031347,7.22531148 C29.7420577,7.22531148 31.1232116,8.6082623 31.1232116,10.9374426 C31.1232116,11.2431475 31.0941347,11.5779672 31.0795962,11.6216393 L26.0492885,11.6216393 C26.0929039,12.4368525 26.8343654,13.0191475 27.6921347,13.0191475 C28.49175,13.0191475 28.9424423,12.6406557 29.1459808,12.072918 Z M33.6226154,14.6786885 L33.6226154,10.4570492 C33.6226154,9.40891803 34.2768462,8.68104918 35.2509231,8.68104918 C36.2976924,8.68104918 36.7338462,9.37980328 36.7338462,10.2823607 L36.7338462,14.6786885 L38.1004616,14.6786885 L38.1004616,10.4424918 C38.1004616,9.43803279 38.7546924,8.68104918 39.7142308,8.68104918 C40.7464616,8.68104918 41.1971539,9.3652459 41.1971539,10.2823607 L41.1971539,14.6786885 L42.5492308,14.6786885 L42.5492308,10.1367869 C42.5492308,8.30255738 41.357077,7.47278689 40.1358462,7.47278689 C39.249,7.47278689 38.3476154,7.79304918 37.7951539,8.7975082 C37.4171539,7.89495082 36.5739231,7.47278689 35.7016154,7.47278689 C34.8874616,7.47278689 34.0151539,7.83672131 33.579,8.6082623 L33.579,7.67659016 L32.2705385,7.67659016 L32.2705385,14.6786885 L33.6226154,14.6786885 Z M46.0081731,17.6047213 L50.5587116,7.67659016 L49.090327,7.67659016 L46.9967885,12.5096393 L44.8160193,7.67659016 L43.2458654,7.67659016 L46.255327,13.9071475 L44.5107116,17.6047213 L46.0081731,17.6047213 Z M5.98984615,24.3302295 C5.98984615,23.0491803 6.93484615,22.3213115 8.127,22.146623 L9.828,21.8845902 C10.2205385,21.8263607 10.3513846,21.6371148 10.3513846,21.3896393 C10.3513846,20.9674754 9.98792308,20.603541 9.29007692,20.603541 C8.51953846,20.603541 8.09792308,21.1276066 8.05430769,21.6662295 L6.13523077,21.2731803 C6.22246154,20.2396066 7.182,18.8712131 9.30461538,18.8712131 C11.6453077,18.8712131 12.5030769,20.181377 12.5030769,21.6662295 L12.5030769,25.2036721 C12.5030769,25.7714098 12.5757692,26.2518033 12.5903077,26.3245902 L10.5985385,26.3245902 C10.584,26.2663607 10.5258462,26.0043279 10.5258462,25.509377 C10.1478462,26.1207869 9.45,26.5283934 8.49046154,26.5283934 C6.90576923,26.5283934 5.98984615,25.4802623 5.98984615,24.3302295 Z M9.02838462,24.927082 C9.68261538,24.927082 10.3513846,24.6068197 10.3513846,23.4859016 L10.3513846,23.1656393 L8.98476923,23.384 C8.51953846,23.4567869 8.17061538,23.6751475 8.17061538,24.1846557 C8.17061538,24.5631475 8.41776923,24.927082 9.02838462,24.927082 Z M13.3450962,26.7321967 L15.29325,26.1790164 C15.4386346,26.8777705 16.0201731,27.3872787 16.8488654,27.3872787 C17.9537885,27.3872787 18.6370962,26.8486557 18.6370962,25.5384918 L18.6370962,25.2036721 C18.3754039,25.5967213 17.75025,26.0188852 16.7034808,26.0188852 C14.7844039,26.0188852 13.3450962,24.504918 13.3450962,22.496 C13.3450962,20.5889836 14.72625,18.9585574 16.7034808,18.9585574 C17.8810962,18.9585574 18.50625,19.482623 18.7097885,19.8611148 L18.7097885,19.0895738 L20.8178654,19.0895738 L20.8178654,25.4220328 C20.8178654,27.5037377 19.6547885,29.3088525 16.9506346,29.3088525 C14.8716346,29.3088525 13.5486346,28.0278033 13.3450962,26.7321967 Z M17.1105577,24.0973115 C18.0119423,24.0973115 18.6516346,23.4859016 18.6516346,22.496 C18.6516346,21.5060984 17.93925,20.8946885 17.1105577,20.8946885 C16.2818654,20.8946885 15.5549423,21.5060984 15.5549423,22.496 C15.5549423,23.4859016 16.2237116,24.0973115 17.1105577,24.0973115 Z M23.8842693,21.840918 L26.7774231,21.840918 C26.7483462,21.2877377 26.3703462,20.6180984 25.3235769,20.6180984 C24.3931154,20.6180984 23.9278846,21.3022951 23.8842693,21.840918 Z M26.9373462,23.7188197 L28.7837308,24.2428852 C28.4348077,25.4948197 27.2862693,26.5429508 25.4544231,26.5429508 C23.4626539,26.5429508 21.6889616,25.1163279 21.6889616,22.6852459 C21.6889616,20.3560656 23.4190385,18.8712131 25.2945,18.8712131 C27.5334231,18.8712131 28.9145769,20.2541639 28.9145769,22.5833443 C28.9145769,22.8890492 28.8855,23.2238689 28.8709616,23.267541 L23.8406539,23.267541 C23.8842693,24.0827541 24.6257308,24.6650492 25.4835,24.6650492 C26.2831154,24.6650492 26.7338077,24.2865574 26.9373462,23.7188197 Z M32.08275,22.1757377 C32.08275,21.4478689 32.5479808,20.9092459 33.2749039,20.9092459 C34.0745193,20.9092459 34.4525193,21.4478689 34.4525193,22.1611803 L34.4525193,26.3245902 L36.6623654,26.3245902 L36.6623654,21.7826885 C36.6623654,20.1959344 35.8482116,18.9003279 34.0309039,18.9003279 C33.2894423,18.9003279 32.4025962,19.2351475 32.0100577,19.9193443 L32.0100577,19.0895738 L29.8729039,19.0895738 L29.8729039,26.3245902 L32.08275,26.3245902 L32.08275,22.1757377 Z M40.7028462,16.9787541 L38.7256154,16.9787541 L38.7256154,17.9104262 C38.7256154,18.5800656 38.3621539,19.0895738 37.6061539,19.0895738 L37.2426924,19.0895738 L37.2426924,21.0257049 L38.522077,21.0257049 L38.522077,24.1264262 C38.522077,25.5676066 39.438,26.4556066 40.9354616,26.4556066 C41.6333077,26.4556066 41.9967693,26.2954754 42.084,26.2518033 L42.084,24.4175738 C41.9531539,24.4466885 41.735077,24.4903607 41.5024616,24.4903607 C41.0226924,24.4903607 40.7028462,24.3302295 40.7028462,23.733377 L40.7028462,21.0257049 L42.113077,21.0257049 L42.113077,19.0895738 L40.7028462,19.0895738 L40.7028462,16.9787541 Z" id="ratemy-agent-copy-3" fill="#FFFFFF"></path>
            </g>
        </g>
    </g>
</svg>